# xmcd
#
# Track frame offsets:
# 150
# 15805
# 29607
# 44672
# 60002
# 72750
# 88632
# 107057
# 121765
# 135995
# 151920
# 167050
# 184200
# 199185
#
# Disc length: 2857 seconds
#
#
# Revision: 1
# Processed by: cddbd v1.5.1PL0 Copyright (c) Steve Scherf et al.
# Submitted via: FreeRIP 2.40 
#
DISCID=ab0b270e
DTITLE=Chitaozinho and Xororó - No Rodeio - Nascemos para Cantar - No Rodeio
DYEAR=2005
DGENRE=Sertanejo
TTITLE0=Bailão de Peão
TTITLE1=Nascemos pra Cantar (Shambala)
TTITLE2=Coração de Fora
TTITLE3=Pura Emoção (Achy Breaky Heart)
TTITLE4=Na Aba do Meu Chapéu
TTITLE5=Deixei de Ser Cowboy por Ela
TTITLE6=Peão de Rodeio
TTITLE7=Va pro Inferno com Seu Amor
TTITLE8=Dinheiro, pra que Dinheiro
TTITLE9=É Disso que o Velho Gosta
TTITLE10=Pode ser pra Valer
TTITLE11=Cara a Cara, Frente a Frente
TTITLE12=Loira Gelada
TTITLE13=Pé na Estrada
EXTD=by Tosh2005
EXTT0=
EXTT1=
EXTT2=
EXTT3=
EXTT4=
EXTT5=
EXTT6=
EXTT7=
EXTT8=
EXTT9=
EXTT10=
EXTT11=
EXTT12=
EXTT13=
PLAYORDER=
